<?xml version="1.0" encoding="UTF-8" standalone="no"?>
<!DOCTYPE svg PUBLIC "-//W3C//DTD SVG 1.1//EN" "http://www.w3.org/Graphics/SVG/1.1/DTD/svg11.dtd">
<svg width="100%" height="100%" viewBox="0 0 551 270" version="1.1" xmlns="http://www.w3.org/2000/svg"
     xmlns:xlink="http://www.w3.org/1999/xlink" xml:space="preserve" xmlns:serif="http://www.serif.com/"
     style="fill-rule:evenodd;clip-rule:evenodd;stroke-linejoin:round;stroke-miterlimit:2;">
    <g transform="matrix(1,0,0,1,0,-1.02084)">
        <g transform="matrix(4.16667,0,0,4.16667,0,0)">
            <path d="M26.845,22.592L26.845,22.169C26.845,20.801 25.881,19.818 24.286,19.818C22.685,19.818 21.773,20.639 21.773,21.817C21.773,22.611 22.314,23.367 23.394,23.764L25.718,24.656C27.574,25.359 29.521,26.322 29.521,29.096C29.521,31.844 27.457,33.699 24.377,33.699C21.278,33.699 19.117,31.986 19.117,29.239L19.117,28.789L21.487,28.789L21.487,29.33C21.487,30.737 22.548,31.681 24.306,31.681C26.142,31.681 27.151,30.691 27.151,29.356C27.151,28.086 26.305,27.429 25.035,26.96L22.756,26.068C20.81,25.313 19.443,24.116 19.443,21.98C19.443,19.629 21.324,17.8 24.286,17.8C27.222,17.8 29.241,19.513 29.241,22.26L29.241,22.592L26.845,22.592Z"
                  style="fill:rgb(255, 0, 115);fill-rule:nonzero;"/>
        </g>
        <g transform="matrix(4.16667,0,0,4.16667,0,0)">
            <path d="M30.25,18.035L40.374,18.035L40.374,20.215L36.52,20.215L36.52,33.466L34.104,33.466L34.104,20.215L30.25,20.215L30.25,18.035Z"
                  style="fill:rgb(255, 0, 115);fill-rule:nonzero;"/>
        </g>
        <g transform="matrix(4.16667,0,0,4.16667,0,0)">
            <path d="M49.885,33.466L47.462,27.592C47.345,27.618 47.202,27.618 47.065,27.618L44.553,27.618L44.553,33.466L42.131,33.466L42.131,18.035L47.229,18.035C50.281,18.035 52.488,19.89 52.488,22.754C52.488,24.753 51.454,26.276 49.832,27.032L52.534,33.466L49.885,33.466ZM44.553,20.169L44.553,25.502L47.02,25.502C48.849,25.502 50.021,24.447 50.021,22.781C50.021,21.179 48.849,20.169 47.02,20.169L44.553,20.169Z"
                  style="fill:rgb(255, 0, 115);fill-rule:nonzero;"/>
        </g>
        <g transform="matrix(4.16667,0,0,4.16667,0,0)">
            <path d="M57.091,26.674L57.091,31.277L63.992,31.277L63.992,33.466L54.67,33.466L54.67,18.035L63.785,18.035L63.785,20.215L57.091,20.215L57.091,24.538L63.173,24.538L63.173,26.674L57.091,26.674Z"
                  style="fill:rgb(255, 0, 115);fill-rule:nonzero;"/>
        </g>
        <g transform="matrix(4.16667,0,0,4.16667,0,0)">
            <path d="M76.35,33.466L74.351,33.466L68.342,22.754L68.342,33.466L66.135,33.466L66.135,18.035L68.224,18.035L74.116,28.529L74.116,18.035L76.35,18.035L76.35,33.466Z"
                  style="fill:rgb(255, 0, 115);fill-rule:nonzero;"/>
        </g>
        <g transform="matrix(4.16667,0,0,4.16667,0,0)">
            <path d="M84.377,25.762L89.192,25.762L89.192,28.789C89.192,31.816 87.129,33.699 84.053,33.699C80.953,33.699 78.811,31.752 78.811,28.646L78.811,22.846C78.811,19.746 80.835,17.8 84.098,17.8C87.148,17.8 89.192,19.584 89.192,22.475L89.192,22.826L86.843,22.826L86.843,22.448C86.843,20.99 85.858,19.981 84.078,19.981C82.268,19.981 81.231,21.159 81.231,22.846L81.231,28.646C81.231,30.339 82.268,31.512 84.053,31.512C85.904,31.512 86.914,30.41 86.914,28.815L86.914,27.683L84.377,27.683L84.377,25.762Z"
                  style="fill:rgb(255, 0, 115);fill-rule:nonzero;"/>
        </g>
        <g transform="matrix(4.16667,0,0,4.16667,0,0)">
            <path d="M93.939,26.674L93.939,31.277L100.839,31.277L100.839,33.466L91.517,33.466L91.517,18.035L100.631,18.035L100.631,20.215L93.939,20.215L93.939,24.538L100.019,24.538L100.019,26.674L93.939,26.674Z"
                  style="fill:rgb(255, 0, 115);fill-rule:nonzero;"/>
        </g>
        <g transform="matrix(4.16667,0,0,4.16667,0,0)">
            <path d="M110.729,33.466L108.308,27.592C108.19,27.618 108.053,27.618 107.911,27.618L105.397,27.618L105.397,33.466L102.975,33.466L102.975,18.035L108.073,18.035C111.126,18.035 113.334,19.89 113.334,22.754C113.334,24.753 112.304,26.276 110.683,27.032L113.386,33.466L110.729,33.466ZM105.397,20.169L105.397,25.502L107.865,25.502C109.695,25.502 110.867,24.447 110.867,22.781C110.867,21.179 109.695,20.169 107.865,20.169L105.397,20.169Z"
                  style="fill:rgb(255, 0, 115);fill-rule:nonzero;"/>
        </g>
        <g transform="matrix(4.16667,0,0,4.16667,0,0)">
            <path d="M24.404,0.245L12.079,17.52L12.079,33.466L15.106,33.466L15.106,18.367L24.397,5.3L30.53,13.919L34.136,13.919L26.188,2.79L24.404,0.245Z"
                  style="fill:rgb(255, 0, 115);fill-rule:nonzero;"/>
        </g>
        <g transform="matrix(4.16667,0,0,4.16667,0,0)">
            <path d="M16.923,1.397L6.025,16.667L6.025,33.466L9.051,33.466L9.051,17.507L18.739,3.939L16.923,1.397Z"
                  style="fill:rgb(255, 0, 115);fill-rule:nonzero;"/>
        </g>
        <g transform="matrix(4.16667,0,0,4.16667,0,0)">
            <path d="M0,15.788L0,33.466L3.026,33.466L3.026,16.635L11.285,5.072L9.475,2.53L0,15.788Z"
                  style="fill:rgb(255, 0, 115);fill-rule:nonzero;"/>
        </g>
        <g transform="matrix(4.16667,0,0,4.16667,0,0)">
            <path d="M66.984,61.029C66.62,61.867 66.327,62.594 65.693,63.199C65.623,63.254 65.552,63.364 65.411,63.474C64.987,63.912 64.355,64.518 64.017,64.396C63.14,63.808 63.308,62.629 63.401,61.669C63.788,59.986 64.583,58.48 65.578,57.149C66.219,56.264 66.993,55.493 67.833,54.781C68.165,55.241 68.074,56.086 68.124,56.821C68.085,58.289 67.208,60.413 66.984,61.029ZM66.635,53.393C66.354,53.726 66.073,54 65.657,54.158C65.311,54.263 64.964,54.366 64.621,54.357C64.555,54.355 64.218,54.065 64.218,54.065C64.376,53.279 65.01,52.616 65.711,52.071C65.921,51.85 66.203,51.688 66.414,51.469C66.617,51.473 66.824,51.421 67.028,51.54C67.214,52.222 67.063,52.784 66.635,53.393ZM76.114,52.964L75.976,52.96C75.633,53.008 75.628,53.179 75.489,53.174C75.292,52.886 75.507,52.497 75.31,52.266C75.175,52.207 75.249,51.925 75.111,51.92C73.892,51.323 73.096,52.94 72.067,52.971C72.223,52.239 72.72,51.577 72.534,50.891C72.063,50.542 71.499,51.092 71.148,51.364C70.516,51.913 68.968,53.398 67.996,53.881C67.792,53.819 67.521,53.698 67.316,53.638L67.253,53.468C67.677,52.971 67.83,52.352 67.842,51.844C67.716,51.444 67.588,51.046 67.182,50.922C66.844,50.687 66.228,50.785 65.737,51.055C65.6,51.106 65.459,51.215 65.388,51.327C64.901,51.54 63.915,52.532 63.623,53.259C63.338,53.59 63.323,54.154 63.591,54.5C64.196,54.911 64.669,55.148 65.569,54.891C65.355,55.168 64.938,55.383 64.793,55.663L64.927,55.777C65.132,55.896 65.404,55.903 65.545,55.795L65.617,55.684L66.332,54.573C66.674,54.582 67.025,54.193 67.365,54.373L67.43,54.489C67.362,54.543 66.654,55.315 66.585,55.369C66.234,55.756 65.878,56.199 65.591,56.643C64.738,57.751 64.022,58.975 63.504,60.315C62.988,61.771 62.671,63.46 63.525,64.78C63.792,65.068 64.273,65.026 64.482,64.917C64.829,64.757 65.112,64.538 65.39,64.32C65.741,63.991 66.093,63.717 66.308,63.385C66.943,62.609 67.445,61.833 67.739,60.992C68.619,58.926 69.095,56.509 68.53,54.404C68.536,54.176 68.536,54.122 68.68,53.955L69.938,52.973L71.123,52.267C71.388,52.727 70.685,53.331 71.223,53.737C72.51,54.394 73.229,53.059 74.27,52.69L74.404,52.694C74.4,52.862 74.394,53.146 74.389,53.316C74.586,53.6 74.72,53.83 75.269,53.847C75.952,53.92 76.38,53.254 76.802,52.871C77.085,52.538 77.712,52.159 77.725,51.651L77.727,51.535C77.165,52.089 76.67,52.584 76.114,52.964Z"
                  style="fill:rgb(255, 0, 115);fill-rule:nonzero;"/>
        </g>
        <g transform="matrix(4.16667,0,0,4.16667,0,0)">
            <path d="M44.661,59.713C44.046,59.693 43.23,59.39 42.833,58.814C42.168,58.008 42.196,56.989 42.496,55.981L42.36,55.923C40.433,56.153 38.397,57.964 36.622,57.636C38.242,56.04 42.074,56.365 43.295,54.25C44.022,52.687 44.95,51.358 45.939,50.253C46.637,49.764 47.549,48.996 48.494,49.53C48.76,49.82 48.407,50.207 48.131,50.309C47.708,50.75 46.96,50.506 46.475,50.774C45.482,51.881 44.491,53.152 43.901,54.662C45.825,54.543 48.117,53.474 49.864,54.762C50.331,55.283 50.041,55.896 49.958,56.459C49.879,56.798 49.665,57.184 49.655,57.639C49.516,57.69 49.444,57.802 49.304,57.855L49.38,57.573C49.046,57.283 48.844,57.106 48.924,56.659C49.073,56.212 49.364,55.596 49.036,55.022C49.041,54.909 48.7,54.788 48.563,54.786C46.852,54.683 44.987,55.086 43.395,55.724C43.098,56.562 42.794,57.682 43.386,58.548C43.788,59.066 44.538,59.199 45.089,59.155L48.061,58.274C48.064,58.105 48.334,58.28 48.408,58.058C48.477,58.059 48.755,57.897 48.82,58.068C47.568,58.715 46.107,59.466 44.731,59.657L44.661,59.713Z"
                  style="fill:rgb(255, 0, 115);fill-rule:nonzero;"/>
        </g>
        <g transform="matrix(4.16667,0,0,4.16667,0,0)">
            <path d="M53.579,57.005C53.17,56.882 52.629,56.643 52.436,56.13C52.39,55.28 53.091,54.733 53.314,54.005C53.598,53.672 54.073,53.855 54.136,54.083L53.535,56.101C54.494,56.127 55.146,54.788 56.313,54.818C56.772,55.565 57.81,55.252 58.491,55.438C57.238,56.142 55.677,55.479 54.478,56.691C54.274,56.743 54.06,56.961 53.579,57.005Z"
                  style="fill:rgb(255, 0, 115);fill-rule:nonzero;"/>
        </g>
        <g transform="matrix(4.16667,0,0,4.16667,0,0)">
            <path d="M50.256,52.966C50.052,52.903 49.716,52.668 49.655,52.385C49.999,52.28 50.618,52.185 50.959,52.307L51.093,52.424C50.947,52.701 50.604,52.75 50.324,52.91L50.256,52.966Z"
                  style="fill:rgb(255, 0, 115);fill-rule:nonzero;"/>
        </g>
        <g transform="matrix(4.16667,0,0,4.16667,0,0)">
            <path d="M107.111,55.81L106.899,56.029C106.495,55.851 106.157,55.615 105.892,55.269C105.492,54.749 105.167,54.119 104.698,53.6L103.915,52.166C104.212,51.215 105.182,50.844 105.818,50.183C105.818,50.183 105.889,50.129 106.028,50.018C106.242,49.799 106.661,49.527 106.663,49.358L108.192,48.551C107.858,50.856 107.383,53.333 107.111,55.81ZM115.235,46.815C115.107,46.473 115.118,46.022 114.781,45.785C114.241,45.49 113.68,45.926 113.337,45.974C113.207,45.631 113.486,45.471 113.425,45.183C113.362,45.015 113.364,44.956 113.158,44.895C111.922,44.92 111.074,45.972 109.969,46.224C110.157,44.25 111.575,42.48 112.172,40.688C111.831,40.567 111.56,40.448 111.281,40.61C110.345,42.338 109.403,44.347 109.013,46.087C108.73,46.362 108.997,46.71 108.782,47.04L106.059,48.89L104.454,49.979L103.533,50.969C103.181,51.358 103.029,51.975 103.153,52.43L104.482,54.046C105.095,54.232 105.347,55.086 105.878,55.777C106.142,56.125 106.408,56.413 106.814,56.593L106.883,56.596C107.157,56.659 107.364,56.663 107.574,56.5C108.706,55.118 107.932,53.347 108.52,51.779C108.98,49.93 108.838,47.435 110.917,46.644C111.331,46.601 111.475,46.265 111.888,46.273L111.881,46.558C112.079,46.788 112.348,47.077 112.617,47.253L114.141,46.673L114.674,47.308C114.811,47.256 115.01,47.487 115.082,47.375C115.289,47.322 115.293,47.266 115.429,47.27L115.44,46.877L115.235,46.815Z"
                  style="fill:rgb(255, 0, 115);fill-rule:nonzero;"/>
        </g>
        <g transform="matrix(4.16667,0,0,4.16667,0,0)">
            <path d="M78.146,51.323C78.222,51.042 77.956,50.638 78.103,50.361C77.351,50.172 76.249,50.368 75.858,49.568L75.931,49.456L78.189,49.63C79.035,48.803 79.085,46.829 80.403,46.353C80.603,46.473 80.809,46.533 80.87,46.818L79.5,49.381C80.386,49.63 81.696,49.325 82.669,48.898C83.296,48.464 83.802,47.461 84.826,47.714C85.097,47.776 85.295,48.121 85.285,48.403C84.715,49.234 82.931,49.358 82.894,50.767C82.954,51.055 83.09,51.17 83.36,51.291C84.73,51.269 86.338,50.236 87.521,49.477L88.981,48.78C89.324,48.792 89.454,49.076 89.58,49.475C89.695,50.325 89.258,51.386 88.417,51.931C87.996,52.315 87.446,52.303 86.969,52.23C86.974,52.063 86.908,51.948 86.981,51.781C87.608,51.403 88.447,50.8 88.472,49.898L88.406,49.783C86.599,50.584 84.695,52.566 82.593,51.723C81.985,51.366 81.869,50.516 81.748,49.949L79.409,50.281C79.268,50.39 79.198,50.39 79.127,50.558C78.975,51.063 79.031,51.57 79.225,52.085C79.287,52.257 79.561,52.264 79.695,52.493C79.759,52.607 79.752,52.891 79.678,53.058C79.536,53.165 79.266,53.102 79.129,53.157C78.647,53.088 78.001,51.658 78.146,51.323Z"
                  style="fill:rgb(255, 0, 115);fill-rule:nonzero;"/>
        </g>
        <g transform="matrix(4.16667,0,0,4.16667,0,0)">
            <path d="M94.991,49.842C94.475,48.588 94.915,47.411 95.223,46.178C95.531,44.887 97.025,42.778 97.451,42.281C98.363,41.516 99.347,40.637 100.727,40.275C101.28,40.064 102.035,40.086 102.501,40.606C102.567,40.775 102.765,41.008 102.758,41.292C102.482,41.339 102.27,41.617 101.992,41.777L101.858,41.661C101.862,41.492 102.072,41.328 102.077,41.103C101.949,40.76 101.471,40.747 101.124,40.795C98.701,41.637 97.071,43.569 96.117,46.089C95.672,47.318 95.151,48.831 96.011,50.152C97.33,52.166 101.057,48.646 100.761,46.831C100.695,46.716 100.629,46.658 100.495,46.541C99.864,47.031 98.973,47.01 98.223,46.877C97.948,46.813 97.82,46.526 97.547,46.407C97.483,46.236 97.488,46.126 97.629,45.902C98.532,45.529 99.489,45.611 100.443,45.917C100.85,46.1 101.185,46.391 101.375,46.901C101.749,48.382 100.695,49.372 99.847,50.251C98.441,51.63 95.828,51.898 94.991,49.842Z"
                  style="fill:rgb(255, 0, 115);fill-rule:nonzero;"/>
        </g>
        <g transform="matrix(4.16667,0,0,4.16667,0,0)">
            <path d="M103.444,49.16C102.558,48.968 102.24,48 102.113,47.656L102.754,46.714C102.758,46.545 103.038,46.325 102.977,46.041C103.407,45.318 104.117,44.433 105.084,44.177C105.289,44.181 105.49,44.355 105.764,44.418C106.265,46.241 102.888,46.831 103.669,48.378C104.149,48.444 104.706,48.119 105.05,48.13C105.328,47.967 105.399,47.856 105.677,47.751C105.8,48.205 105.107,48.583 104.822,48.857C104.41,49.017 103.991,49.229 103.444,49.16Z"
                  style="fill:rgb(255, 0, 115);fill-rule:nonzero;"/>
        </g>
        <g transform="matrix(4.16667,0,0,4.16667,0,0)">
            <path d="M118.932,47.079L117.993,46.208C117.987,43.892 119.683,41.96 121.104,40.075L121.244,40.023C121.45,39.972 121.789,40.151 121.921,40.381C121.187,42.169 118.667,44.079 119.159,46.295C120.404,45.876 120.86,44.25 122.224,44.457C122.36,44.514 122.426,44.574 122.494,44.688C122.483,45.084 122.543,45.368 122.741,45.711C123.774,45.514 124.284,44.396 125.189,43.798C125.361,42.502 126.007,41.505 126.923,40.567C127.41,40.295 127.78,39.177 128.591,39.649C128.587,39.819 128.655,39.934 128.783,40.164C127.792,41.324 125.972,42.748 126.474,44.567C126.664,45.192 127.341,45.494 127.95,45.791C129.246,46.108 130.638,45.297 132.001,45.728L131.927,45.839C129.99,46.522 127.849,46.975 126.036,45.629C125.702,45.225 125.575,44.825 125.308,44.537L125.169,44.589L124.245,45.808C123.756,46.191 123.056,46.794 122.381,46.382C121.968,46.368 121.913,45.915 121.501,45.791C120.803,46.338 120.094,47.167 119.067,47.141L118.932,47.079Z"
                  style="fill:rgb(255, 0, 115);fill-rule:nonzero;"/>
        </g>
        <g transform="matrix(4.16667,0,0,4.16667,0,0)">
            <path d="M116.627,43.462C116.421,43.399 116.082,43.277 116.022,42.936L116.093,42.826C116.441,42.608 116.711,42.785 117.122,42.796L117.254,42.969C117.252,43.025 117.181,43.138 117.109,43.306C117.107,43.362 116.904,43.355 116.695,43.464L116.627,43.462Z"
                  style="fill:rgb(255, 0, 115);fill-rule:nonzero;"/>
        </g>
        <g transform="matrix(4.16667,0,0,4.16667,0,0)">
            <path d="M114.435,43.291C114.232,43.23 114.097,43.056 113.969,42.769L114.041,42.659C114.388,42.441 114.793,42.679 115.141,42.574L115.205,42.748C115.202,42.86 115.263,43.144 115.055,43.252C114.913,43.36 114.711,43.243 114.435,43.291Z"
                  style="fill:rgb(255, 0, 115);fill-rule:nonzero;"/>
        </g>
        <g transform="matrix(4.16667,0,0,4.16667,0,0)">
            <path d="M21.22,40.903L22.859,40.903L22.859,41.934C22.859,42.966 22.155,43.605 21.108,43.605C20.053,43.605 19.325,42.941 19.325,41.887L19.325,39.911C19.325,38.856 20.013,38.192 21.124,38.192C22.164,38.192 22.859,38.8 22.859,39.783L22.859,39.903L22.06,39.903L22.06,39.775C22.06,39.279 21.724,38.935 21.116,38.935C20.501,38.935 20.148,39.336 20.148,39.911L20.148,41.887C20.148,42.462 20.501,42.861 21.108,42.861C21.74,42.861 22.084,42.486 22.084,41.942L22.084,41.558L21.22,41.558L21.22,40.903Z"
                  style="fill:rgb(255, 0, 115);fill-rule:nonzero;"/>
        </g>
        <g transform="matrix(4.16667,0,0,4.16667,0,0)">
            <path d="M24.973,39L24.973,40.814L25.812,40.814C26.436,40.814 26.835,40.455 26.835,39.888C26.835,39.344 26.436,39 25.812,39L24.973,39ZM26.788,43.525L25.964,41.526C25.924,41.534 25.876,41.534 25.828,41.534L24.973,41.534L24.973,43.525L24.149,43.525L24.149,38.272L25.884,38.272C26.923,38.272 27.675,38.904 27.675,39.88C27.675,40.558 27.323,41.079 26.772,41.335L27.691,43.525L26.788,43.525Z"
                  style="fill:rgb(255, 0, 115);fill-rule:nonzero;"/>
        </g>
        <g transform="matrix(4.16667,0,0,4.16667,0,0)">
            <path d="M32.379,38.272L32.379,41.887C32.379,42.941 31.667,43.605 30.628,43.605C29.588,43.605 28.876,42.941 28.876,41.887L28.876,38.272L29.7,38.272L29.7,41.887C29.7,42.462 30.036,42.861 30.628,42.861C31.211,42.861 31.555,42.462 31.555,41.887L31.555,38.272L32.379,38.272Z"
                  style="fill:rgb(255, 0, 115);fill-rule:nonzero;"/>
        </g>
        <g transform="matrix(4.16667,0,0,4.16667,0,0)">
            <path d="M34.652,39L34.652,40.975L35.492,40.975C36.115,40.975 36.515,40.575 36.515,39.975C36.515,39.384 36.115,39 35.492,39L34.652,39ZM33.829,38.272L35.556,38.272C36.595,38.272 37.355,38.944 37.355,39.959C37.355,41.015 36.595,41.694 35.556,41.694L34.652,41.694L34.652,43.525L33.829,43.525L33.829,38.272Z"
                  style="fill:rgb(255, 0, 115);fill-rule:nonzero;"/>
        </g>
        <g transform="matrix(4.16667,0,0,4.16667,0,0)">
            <path d="M39.308,39L39.308,40.975L40.147,40.975C40.772,40.975 41.171,40.575 41.171,39.975C41.171,39.384 40.772,39 40.147,39L39.308,39ZM38.484,38.272L40.211,38.272C41.251,38.272 42.011,38.944 42.011,39.959C42.011,41.015 41.251,41.694 40.211,41.694L39.308,41.694L39.308,43.525L38.484,43.525L38.484,38.272Z"
                  style="fill:rgb(255, 0, 115);fill-rule:nonzero;"/>
        </g>
        <g transform="matrix(4.16667,0,0,4.16667,0,0)">
            <path d="M43.964,41.215L43.964,42.782L46.315,42.782L46.315,43.525L43.141,43.525L43.141,38.272L46.243,38.272L46.243,39.016L43.964,39.016L43.964,40.487L46.035,40.487L46.035,41.215L43.964,41.215Z"
                  style="fill:rgb(255, 0, 115);fill-rule:nonzero;"/>
        </g>
    </g>
</svg>
