<?xml version="1.0" encoding="UTF-8" standalone="no"?>
<!DOCTYPE svg PUBLIC "-//W3C//DTD SVG 1.1//EN" "http://www.w3.org/Graphics/SVG/1.1/DTD/svg11.dtd">
<svg width="100%" height="100%" viewBox="0 0 160 160" version="1.1" xmlns="http://www.w3.org/2000/svg"
     xmlns:xlink="http://www.w3.org/1999/xlink" xml:space="preserve" xmlns:serif="http://www.serif.com/"
     style="fill-rule:evenodd;clip-rule:evenodd;stroke-linejoin:round;stroke-miterlimit:2;">
    <g transform="matrix(4.21053,0,0,4.21053,-4.21053,-4.21053)">
        <path d="M39,20C39,9.508 30.493,1 20,1C9.507,1 1,9.508 1,20C1,30.494 9.507,39 20,39C30.493,39 39,30.494 39,20ZM26.808,25.25L23.799,25.25L23.799,20.856C23.799,19.706 23.324,18.92 22.291,18.92C21.5,18.92 21.061,19.449 20.854,19.962C20.777,20.143 20.788,20.399 20.788,20.654L20.788,25.25L17.81,25.25C17.81,25.25 17.848,17.464 17.81,16.756L20.789,16.756L20.789,18.091C20.969,17.508 21.92,16.678 23.44,16.678C25.324,16.678 26.808,17.899 26.808,20.528L26.808,25.25ZM16.189,25.25L13.534,25.25L13.534,16.756L16.189,16.756L16.189,25.25ZM14.797,15.697L14.776,15.697C13.819,15.697 13.192,15.047 13.192,14.225C13.192,13.385 13.836,12.75 14.814,12.75C15.796,12.75 16.395,13.384 16.415,14.223C16.415,15.045 15.797,15.697 14.797,15.697Z"
              style="fill-rule:nonzero;"/>
    </g>
</svg>
