<?xml version="1.0" encoding="utf-8"?>
<!-- Generator: Adobe Illustrator 22.0.1, SVG Export Plug-In . SVG Version: 6.00 Build 0)  -->
<svg version="1.1" id="Ebene_1" xmlns="http://www.w3.org/2000/svg" xmlns:xlink="http://www.w3.org/1999/xlink" x="0px"
     y="0px"
     viewBox="0 0 160 160" style="enable-background:new 0 0 160 160;" xml:space="preserve">
<style type="text/css">
	.st0{fill:#000000;}
</style>
    <g>
	<path class="st0" d="M80,0C35.8,0,0,35.8,0,80s35.8,80,80,80s80-35.8,80-80S124.2,0,80,0z M124.2,97.2c-0.9,8.1-5.4,12.5-10.7,13.4
		c-5.4,0.9-29,1.3-29,1.3H80h-4.5c0,0-23.7-0.4-29-1.3c-5.4-0.9-9.8-5.4-10.7-13.4c-0.8-7-0.9-14.6-0.9-16.5c0,0,0-0.1,0-0.2
		s0-0.2,0-0.2c0-1.9,0.1-9.5,0.9-16.5c0.9-8.1,5.3-12.5,10.7-13.4c5.4-0.9,29-1.3,29-1.3H80h4.4c0,0,23.7,0.4,29,1.3
		c5.4,0.9,9.8,5.4,10.7,13.4c0.8,7,0.9,14.6,0.9,16.5c0,0,0,0.1,0,0.2s0,0.2,0.1,0.2C125.1,82.6,125,90.2,124.2,97.2z"/>
        <polygon class="st0" points="71.3,94.9 94,80.9 71.3,67 	"/>
</g>
</svg>
